<?xml version="1.0" encoding="UTF-8"?><svg id="_圖層_2" xmlns="http://www.w3.org/2000/svg" xmlns:xlink="http://www.w3.org/1999/xlink" viewBox="0 0 116.99 116.99"><defs><style>.cls-1{fill:url(#_未命名漸層_5);}.cls-2{fill:url(#_未命名漸層_5-2);}.cls-3{fill:url(#_未命名漸層_5-5);}.cls-4{fill:url(#_未命名漸層_5-3);}.cls-5{fill:url(#_未命名漸層_5-4);}.cls-6{fill:url(#_未命名漸層_43);}.cls-7{fill:url(#_未命名漸層_43-2);}.cls-8{fill:url(#_未命名漸層_43-3);}</style><linearGradient id="_未命名漸層_5" x1="58.5" y1="3.99" x2="58.5" y2="108.63" gradientUnits="userSpaceOnUse"><stop offset="0" stop-color="#060357"/><stop offset="1" stop-color="#0f85e7"/></linearGradient><linearGradient id="_未命名漸層_5-2" x1="64.22" y1="3.99" x2="64.22" y2="108.63" xlink:href="#_未命名漸層_5"/><linearGradient id="_未命名漸層_5-3" x1="87.09" y1="3.99" x2="87.09" y2="108.63" gradientTransform="translate(66.99 -44.4) rotate(45)" xlink:href="#_未命名漸層_5"/><linearGradient id="_未命名漸層_5-4" x1="29.58" y1="3.99" x2="29.58" y2="108.63" xlink:href="#_未命名漸層_5"/><linearGradient id="_未命名漸層_5-5" x1="58.34" y1="3.99" x2="58.34" y2="108.63" gradientTransform="translate(78.89 -15.65) rotate(45)" xlink:href="#_未命名漸層_5"/><linearGradient id="_未命名漸層_43" x1="64.22" y1="64.6" x2="64.22" y2="15.97" gradientUnits="userSpaceOnUse"><stop offset="0" stop-color="#fff" stop-opacity=".5"/><stop offset="1" stop-color="#fff" stop-opacity="0"/></linearGradient><linearGradient id="_未命名漸層_43-2" x1="87.25" y1="64.6" x2="87.25" y2="15.97" xlink:href="#_未命名漸層_43"/><linearGradient id="_未命名漸層_43-3" x1="29.68" y1="64.6" x2="29.68" y2="15.97" xlink:href="#_未命名漸層_43"/></defs><g id="_圖層_1-2"><g><path class="cls-1" d="m99.88,99.88c-22.82,22.82-59.95,22.82-82.76,0-22.82-22.82-22.82-59.95,0-82.76s59.95-22.82,82.76,0c22.82,22.82,22.82,59.95,0,82.76ZM22.08,22.08C2,42.16,2,74.83,22.08,94.91s52.75,20.08,72.84,0c20.08-20.08,20.08-52.75,0-72.84C74.83,2,42.16,2,22.08,22.08Z"/><g><path class="cls-2" d="m58.05,50.2l.13.13,20.59-20.59-20.27-20.27-2.3,2.3c-9.27,11.23-8.65,27.93,1.85,38.44Z"/><rect class="cls-4" x="72.53" y="44.32" width="29.12" height="28.67" transform="translate(-15.97 78.76) rotate(-45)"/><path class="cls-5" d="m49.58,58.68c-7.84-7.84-11.79-18.12-11.87-28.42l-28.24,28.24,20.27,20.27,19.96-19.96-.13-.13Z"/><rect class="cls-3" x="44.22" y="73.07" width="28.23" height="28.67" transform="translate(-44.72 66.86) rotate(-45)"/></g><g><path class="cls-6" d="m58.18,50.33l20.59-20.59-20.27-20.27-2.3,2.3c-9.27,11.23-8.65,27.93,1.85,38.44l.13.13Z"/><polygon class="cls-7" points="87.25 38.22 70.73 54.75 103.78 54.75 87.25 38.22"/><path class="cls-8" d="m37.71,30.25l-24.49,24.49h32.92c-5.55-7.19-8.36-15.83-8.43-24.49Z"/></g></g></g></svg>