<?xml version="1.0" encoding="UTF-8"?><svg id="_圖層_2" xmlns="http://www.w3.org/2000/svg" xmlns:xlink="http://www.w3.org/1999/xlink" viewBox="0 0 674.89 116.99"><defs><style>.cls-1{fill:url(#_未命名漸層_5);}.cls-2{fill:url(#_未命名漸層_5-2);}.cls-3{fill:url(#_未命名漸層_5-5);}.cls-4{fill:url(#_未命名漸層_5-3);}.cls-5{fill:url(#_未命名漸層_5-4);}.cls-6{fill:url(#_未命名漸層_43);}.cls-7{fill:url(#_未命名漸層_43-2);}.cls-8{fill:url(#_未命名漸層_43-3);}</style><linearGradient id="_未命名漸層_5" x1="58.5" y1="3.99" x2="58.5" y2="108.63" gradientUnits="userSpaceOnUse"><stop offset="0" stop-color="#060357"/><stop offset="1" stop-color="#0f85e7"/></linearGradient><linearGradient id="_未命名漸層_5-2" x1="64.22" y1="3.99" x2="64.22" y2="108.63" xlink:href="#_未命名漸層_5"/><linearGradient id="_未命名漸層_5-3" x1="87.09" y1="3.99" x2="87.09" y2="108.63" gradientTransform="translate(66.99 -44.4) rotate(45)" xlink:href="#_未命名漸層_5"/><linearGradient id="_未命名漸層_5-4" x1="29.58" y1="3.99" x2="29.58" y2="108.63" xlink:href="#_未命名漸層_5"/><linearGradient id="_未命名漸層_5-5" x1="58.34" y1="3.99" x2="58.34" y2="108.63" gradientTransform="translate(78.89 -15.65) rotate(45)" xlink:href="#_未命名漸層_5"/><linearGradient id="_未命名漸層_43" x1="64.22" y1="64.6" x2="64.22" y2="15.97" gradientUnits="userSpaceOnUse"><stop offset="0" stop-color="#fff" stop-opacity=".5"/><stop offset="1" stop-color="#fff" stop-opacity="0"/></linearGradient><linearGradient id="_未命名漸層_43-2" x1="87.25" y1="64.6" x2="87.25" y2="15.97" xlink:href="#_未命名漸層_43"/><linearGradient id="_未命名漸層_43-3" x1="29.68" y1="64.6" x2="29.68" y2="15.97" xlink:href="#_未命名漸層_43"/></defs><g id="_圖層_1-2"><g><g><path class="cls-1" d="m99.88,99.88c-22.82,22.82-59.95,22.82-82.76,0-22.82-22.82-22.82-59.95,0-82.76,22.82-22.82,59.95-22.82,82.76,0,22.82,22.82,22.82,59.95,0,82.76ZM20.65,20.65C-.22,41.52-.22,75.47,20.65,96.34c20.87,20.87,54.82,20.87,75.69,0s20.87-54.82,0-75.69C75.47-.22,41.52-.22,20.65,20.65Z"/><g><path class="cls-2" d="m58.05,50.2l.13.13,20.59-20.59-20.27-20.27-2.3,2.3c-9.27,11.23-8.65,27.93,1.85,38.44Z"/><rect class="cls-4" x="72.53" y="44.32" width="29.12" height="28.67" transform="translate(-15.97 78.76) rotate(-45)"/><path class="cls-5" d="m49.58,58.68c-7.84-7.84-11.79-18.12-11.87-28.42l-28.24,28.24,20.27,20.27,19.96-19.96-.13-.13Z"/><rect class="cls-3" x="44.22" y="73.07" width="28.23" height="28.67" transform="translate(-44.72 66.86) rotate(-45)"/></g><g><path class="cls-6" d="m58.18,50.33l20.59-20.59-20.27-20.27-2.3,2.3c-9.27,11.23-8.65,27.93,1.85,38.44l.13.13Z"/><polygon class="cls-7" points="87.25 38.22 70.73 54.75 103.78 54.75 87.25 38.22"/><path class="cls-8" d="m37.71,30.25l-24.49,24.49h32.92c-5.55-7.19-8.36-15.83-8.43-24.49Z"/></g></g><g><path d="m159.78,59.12h28.32v23.05h-4.84v-2.19h-18.81v2.3h-4.67v-19.34l-2.39,3.19c-1.09-1.36-3.15-3.66-5-5.49v21.64h-4.95v-18.71c-2.12,2.09-4.29,3.87-6.52,5.38-.38-1.31-1.69-3.66-2.45-4.55,5.71-3.4,11.47-9.46,14.78-15.99h-12.77v-4.39h15.33l.87-.16,2.83,1.73c-1.52,3.76-3.53,7.47-5.92,10.82,1.58,1.25,4.67,3.92,6.2,5.28v-2.56Zm-11.31-15.21c-.87-2.04-2.66-5.23-4.19-7.58l3.97-1.67c1.58,2.35,3.37,5.33,4.29,7.32l-4.08,1.93Zm39.89-7.16v4.13h-28.86v-4.13h28.86Zm-2.66,7v12.49h-23.15v-12.49h23.15Zm-21.25,19.34v4.55h6.96v-4.55h-6.96Zm0,12.96h6.96v-4.7h-6.96v4.7Zm16.58-28.48h-13.97v4.86h13.97v-4.86Zm2.23,15.52h-7.28v4.55h7.28v-4.55Zm0,12.96v-4.7h-7.28v4.7h7.28Z"/><path d="m239.73,59.18v23.15h-5.6v-2.19h-30.6v2.3h-5.33v-23.26h41.52Zm-4.35-3.5h-32.94v-19.39h32.94v19.39Zm-31.85,7.68v4.18h30.6v-4.18h-30.6Zm30.6,12.6v-4.39h-30.6v4.39h30.6Zm-4.29-35.69h-22.12v3.82h22.12v-3.82Zm0,7.53h-22.12v3.92h22.12v-3.92Z"/><path d="m297.61,73.65v4.86h-48.65v-4.86h21.25v-28.64h-18.37v-5.02h42.94v5.02h-18.91v28.64h21.74Z"/><path d="m322.93,74.07c-3.8,2.82-10.6,5.54-16.2,6.74-.71-1.05-2.01-2.67-3.04-3.55,5.49-.78,12.07-2.72,15.54-4.86l3.7,1.67Zm28.43-7.94v4.08h-21.42v12.12h-4.95v-12.12h-21.09v-4.08h21.09v-3.14h-16.03v-3.66h16.03v-3.14h-18.7v-3.81h10.92c-.54-1.31-1.47-3.14-2.39-4.49l3.15-.73h-13.86v-3.87h8.1c-.82-2.04-2.45-4.91-3.97-7.06l4.4-1.46c1.69,2.25,3.59,5.44,4.35,7.47l-2.88,1.04h6.09v-8.99h4.73v8.99h5.38v-8.99h4.78v8.99h5.92l-2.12-.68c1.3-2.09,2.99-5.38,3.8-7.73l5.22,1.31c-1.47,2.56-3.1,5.17-4.51,7.11h7.77v3.87h-14.24l4.24,1.05c-1.2,1.57-2.45,2.98-3.53,4.18h11.52v3.81h-19.24v3.14h16.69v3.66h-16.69v3.14h21.42Zm-31.58-18.97c1.09,1.46,2.12,3.4,2.55,4.6l-2.45.63h14.84l-1.96-.58c1.03-1.31,2.28-3.29,3.04-4.65h-16.03Zm16.41,24.93c4.78,1.67,11.41,4.18,15.06,5.85l-3.37,2.82c-3.37-1.62-10-4.39-14.95-6.22l3.26-2.46Z"/><path d="m376.09,76.58c0,2.25-.43,3.66-1.85,4.44-1.41.78-3.48.89-6.85.89-.16-1.2-.71-3.34-1.3-4.55,2.07.05,3.97.05,4.57.05.65,0,.87-.26.87-.94v-12.49l-5.49,3.24-1.58-3.4c-.38,6.48-1.36,13.43-3.64,18.55-.92-.78-2.99-1.83-4.13-2.2,3.32-7.26,3.53-17.61,3.53-25.24v-18.71h15.87v40.35Zm-11.36-21.74c0,2.35-.05,5.02-.16,7.73,1.9-.73,4.35-1.72,6.96-2.77v-5.96l-2.07,1.67c-1.03-1.41-2.94-3.55-4.73-5.38v4.7Zm0-14.16v7.32l1.68-1.15c1.74,1.46,3.7,3.34,5.11,4.91v-11.08h-6.79Zm40.33,17.4c-1.9,6.48-5.22,11.5-9.51,15.36,3.26,2.09,7.07,3.66,11.3,4.65-1.14.99-2.61,2.87-3.26,4.18-4.62-1.25-8.64-3.19-12.07-5.7-3.7,2.46-7.94,4.29-12.39,5.59-.6-1.31-1.74-3.19-2.72-4.18,4.02-.99,7.94-2.51,11.36-4.6-3.21-3.19-5.76-7-7.72-11.29l1.79-.52h-3.42v-4.55h22.5l.87-.16,3.26,1.2Zm-16.9-16.04c0,4.76-1.47,10.35-8.32,13.95-.6-.94-2.34-2.77-3.26-3.4,6.03-3.03,6.96-7.11,6.96-10.61v-5.64h17.17v11.71c0,1.46.05,1.99.76,1.99h2.61c.65,0,1.79-.1,2.45-.31l.38,3.92c-.71.26-1.79.31-2.72.31h-3.15c-4.18,0-5.11-1.67-5.11-5.96v-7.16h-7.77v1.2Zm-3.32,19.55c1.58,3.4,3.86,6.38,6.74,8.94,2.88-2.46,5.27-5.44,6.96-8.94h-13.7Z"/><path d="m427.77,35.97c-1.47,3.66-3.32,7.42-5.38,10.92v35.38h-4.95v-27.91c-1.47,1.93-2.99,3.71-4.51,5.23-.49-1.15-1.96-3.76-2.77-4.91,5.11-4.86,9.95-12.49,12.88-20.07l4.73,1.36Zm27.5,19.49s0,1.41-.05,2.04c-.71,15-1.3,20.54-2.93,22.37-.98,1.25-2.07,1.67-3.53,1.83-1.41.21-3.7.21-6.09.1-.11-1.31-.6-3.19-1.41-4.44,2.17.21,4.08.26,4.95.26.82,0,1.3-.1,1.79-.73.92-1.1,1.63-5.49,2.17-16.93h-8.26c-1.41,10.77-5.11,17.82-12.99,22.21-.65-.99-2.39-2.82-3.48-3.61,7.23-3.5,10.38-9.56,11.47-18.6h-5.65v-4.49h24.02Zm-14.89-17.46c-2.34,7.73-6.47,14.79-11.63,19.34-.6-1.05-2.23-3.34-3.21-4.34,4.51-3.71,7.99-9.67,9.84-16.2l5,1.2Zm11.09-1.93c1.58,6.69,5.16,13.12,9.84,16.41-1.03,1.15-2.5,3.5-3.21,5.02-4.62-3.97-8.37-10.35-10.44-16.78h-5.65v-4.65h9.46Z"/><path d="m485.32,45.43c-.92,1.78-1.85,3.55-2.88,5.23h25.71v26.03c0,2.61-.54,4.08-2.5,4.81-1.9.78-4.95.78-9.46.78-.16-1.31-.92-3.4-1.58-4.7,3.21.16,6.47.16,7.39.1.92,0,1.2-.26,1.2-1.05v-4.49h-21.9c-.82,3.92-2.5,7.73-5.71,10.56-.65-1.1-2.66-3.14-3.64-3.82,4.57-4.02,5-9.72,5-14.58v-6.17c-2.34,2.67-4.95,5.02-7.88,7-.76-1.1-2.28-2.82-3.32-3.76,5.98-3.87,10.6-9.67,13.97-15.94h-12.77v-4.55h14.89c.92-2.2,1.69-4.39,2.28-6.53l5.16,1.15c-.6,1.78-1.2,3.61-1.96,5.38h27.07v4.55h-29.08Zm17.88,22.63v-4.55h-21.2v.89c0,1.15-.05,2.4-.16,3.66h21.36Zm0-13.12h-21.2v4.49h21.2v-4.49Z"/><path d="m539.56,38.11c-1.52,4.29-3.37,9.41-5.05,13.43,3.59,4.29,4.4,7.94,4.4,11.13s-.65,5.23-2.23,6.38c-.81.57-1.74.89-2.93,1.04-.98.1-2.34.1-3.53.1,0-1.2-.43-3.03-1.2-4.23,1.14.05,2.01.1,2.83.05.6,0,1.14-.16,1.58-.42.76-.57,1.03-1.88,1.03-3.45,0-2.67-.87-6.11-4.35-10.03,1.3-3.45,2.72-7.84,3.7-11.29h-6.69v41.34h-4.4v-45.68h12.83l.71-.21,3.32,1.83Zm29.46,26.24c-2.61,2.04-5.87,4.13-8.59,5.7,2.5,3.45,5.71,6.17,9.73,7.79-1.09.94-2.72,2.87-3.37,4.13-8.32-4.02-13.04-11.97-15.71-22.21h-4.4v16.04l8.7-1.93c0,1.36.05,3.29.27,4.39-10.87,2.77-12.72,3.4-13.86,4.13-.38-1.1-1.47-3.03-2.23-3.92.92-.52,2.23-1.78,2.23-4.02v-37.84h24.02v23.15h-10.33c.76,2.4,1.63,4.7,2.77,6.9,2.55-1.72,5.54-3.92,7.39-5.7l3.37,3.4Zm-22.34-23.52v5.28h14.24v-5.28h-14.24Zm0,14.69h14.24v-5.44h-14.24v5.44Z"/><path d="m594.45,37.43c-3.86,8.52-10,17.09-15.98,22.37-.87-.99-3.15-3.03-4.46-4.02,5.92-4.7,11.58-12.33,14.89-20.02l5.54,1.67Zm15.27,24.41c4.35,5.64,9.46,12.96,12.01,17.66l-5.11,2.67c-.76-1.52-1.68-3.19-2.88-5.07-27.23,1.93-30.49,2.14-32.88,3.03-.22-1.1-1.25-3.81-2.01-5.23,1.63-.42,3.1-1.99,5.22-4.39,2.23-2.3,9.13-11.39,13.48-20.12l5.87,2.3c-4.46,7.63-9.89,15.21-15.33,21.22l22.77-1.31c-2.01-3.03-4.13-6.06-6.03-8.68l4.89-2.09Zm1.03-26.18c2.5,7.84,7.72,15.47,14.19,19.34-1.2,1.1-2.99,3.29-3.91,4.81-6.14-4.44-11.14-11.76-14.13-19.18h-9.46v-4.96h13.32Z"/><path d="m674.89,75.64c0,3.08-.65,4.7-2.66,5.49-2.07.89-5.44.99-10.27.94-.22-1.41-1.03-3.87-1.74-5.28,3.48.16,7.12.16,8.15.1,1.03-.05,1.36-.31,1.36-1.31v-33.34h-38.43v-4.65h43.59v38.05Zm-11.03-24.41h-32.12v-4.29h32.12v4.29Zm-24.08,21.79v3.81h-4.89v-20.75h25.6v16.93h-20.71Zm0-12.75v8.52h15.76v-8.52h-15.76Z"/></g></g></g></svg>