<?xml version="1.0" encoding="utf-8"?>
<!-- Generator: Adobe Illustrator 28.1.0, SVG Export Plug-In . SVG Version: 6.00 Build 0)  -->
<svg version="1.1" id="_圖層_2" xmlns="http://www.w3.org/2000/svg" xmlns:xlink="http://www.w3.org/1999/xlink" x="0px" y="0px"
	 viewBox="0 0 794.9 117" style="enable-background:new 0 0 794.9 117;" xml:space="preserve">
<style type="text/css">
	.st0{fill:url(#SVGID_1_);}
	.st1{fill:url(#SVGID_00000175300396387669795850000005190508416769873340_);}
	.st2{fill:url(#SVGID_00000103260196076683442760000012986421221503164296_);}
	.st3{fill:url(#SVGID_00000030481871073887714460000009053259332417985202_);}
	.st4{fill:url(#SVGID_00000005960203984081676770000007996308379114837896_);}
	.st5{fill:url(#SVGID_00000165210816342914559550000006136836924958086809_);}
	.st6{fill:url(#SVGID_00000170259473526628988570000009715314154900949133_);}
	.st7{fill:url(#SVGID_00000065071169381346950700000014395320317859610503_);}
	.st8{fill:#FFFFFF;}
</style>
<g>
	<g id="_圖層_1-2">
		<g>
			<g>
				
					<linearGradient id="SVGID_1_" gradientUnits="userSpaceOnUse" x1="58.495" y1="114.005" x2="58.495" y2="9.365" gradientTransform="matrix(1 0 0 -1 0 117.99)">
					<stop  offset="0" style="stop-color:#060357"/>
					<stop  offset="1" style="stop-color:#0F85E7"/>
				</linearGradient>
				<path class="st0" d="M99.9,99.9c-22.8,22.8-59.9,22.8-82.8,0c-22.8-22.8-22.8-59.9,0-82.8c22.8-22.8,59.9-22.8,82.8,0
					C122.7,39.9,122.7,77.1,99.9,99.9z M20.6,20.6c-20.9,20.9-20.9,54.8,0,75.7s54.8,20.9,75.7,0s20.9-54.8,0-75.7
					S41.5-0.2,20.6,20.6z"/>
				<g>
					
						<linearGradient id="SVGID_00000076597208097606315990000001321796811339665083_" gradientUnits="userSpaceOnUse" x1="64.2212" y1="114.005" x2="64.2212" y2="9.365" gradientTransform="matrix(1 0 0 -1 0 117.99)">
						<stop  offset="0" style="stop-color:#060357"/>
						<stop  offset="1" style="stop-color:#0F85E7"/>
					</linearGradient>
					<path style="fill:url(#SVGID_00000076597208097606315990000001321796811339665083_);" d="M58,50.2l0.1,0.1l20.6-20.6L58.5,9.5
						l-2.3,2.3C46.9,23,47.5,39.7,58,50.2L58,50.2z"/>
					
						<linearGradient id="SVGID_00000056386545497596971860000017105412693822942093_" gradientUnits="userSpaceOnUse" x1="87.0787" y1="114.005" x2="87.0787" y2="9.365" gradientTransform="matrix(1 0 0 -1 3.539057e-03 117.9854)">
						<stop  offset="0" style="stop-color:#060357"/>
						<stop  offset="1" style="stop-color:#0F85E7"/>
					</linearGradient>
					<polygon style="fill:url(#SVGID_00000056386545497596971860000017105412693822942093_);" points="66.7,58.8 87.2,38.2 
						107.5,58.5 86.9,79.1 					"/>
					
						<linearGradient id="SVGID_00000016768969309574710740000006829233258248261248_" gradientUnits="userSpaceOnUse" x1="29.58" y1="114.005" x2="29.58" y2="9.365" gradientTransform="matrix(1 0 0 -1 0 117.99)">
						<stop  offset="0" style="stop-color:#060357"/>
						<stop  offset="1" style="stop-color:#0F85E7"/>
					</linearGradient>
					<path style="fill:url(#SVGID_00000016768969309574710740000006829233258248261248_);" d="M49.6,58.7
						c-7.8-7.8-11.8-18.1-11.9-28.4L9.5,58.5l20.3,20.3l20-20L49.6,58.7L49.6,58.7z"/>
					
						<linearGradient id="SVGID_00000172414039436278416800000017313152080917203885_" gradientUnits="userSpaceOnUse" x1="58.3313" y1="114.005" x2="58.3313" y2="9.365" gradientTransform="matrix(1 0 0 -1 -2.569306e-03 118.0001)">
						<stop  offset="0" style="stop-color:#060357"/>
						<stop  offset="1" style="stop-color:#0F85E7"/>
					</linearGradient>
					<polygon style="fill:url(#SVGID_00000172414039436278416800000017313152080917203885_);" points="38.2,87.3 58.2,67.3 
						78.4,87.6 58.5,107.5 					"/>
				</g>
				<g>
					
						<linearGradient id="SVGID_00000102536461520297301620000016400562723700613286_" gradientUnits="userSpaceOnUse" x1="64.2212" y1="53.395" x2="64.2212" y2="102.025" gradientTransform="matrix(1 0 0 -1 0 117.99)">
						<stop  offset="0" style="stop-color:#FFFFFF;stop-opacity:0.5"/>
						<stop  offset="1" style="stop-color:#FFFFFF;stop-opacity:0"/>
					</linearGradient>
					<path style="fill:url(#SVGID_00000102536461520297301620000016400562723700613286_);" d="M58.2,50.3l20.6-20.6L58.5,9.5
						l-2.3,2.3C46.9,23,47.5,39.7,58,50.2L58.2,50.3L58.2,50.3z"/>
					
						<linearGradient id="SVGID_00000105402649937398511320000008227477796431120008_" gradientUnits="userSpaceOnUse" x1="87.25" y1="53.395" x2="87.25" y2="102.025" gradientTransform="matrix(1 0 0 -1 0 117.99)">
						<stop  offset="0" style="stop-color:#FFFFFF;stop-opacity:0.5"/>
						<stop  offset="1" style="stop-color:#FFFFFF;stop-opacity:0"/>
					</linearGradient>
					<polygon style="fill:url(#SVGID_00000105402649937398511320000008227477796431120008_);" points="87.2,38.2 70.7,54.7 
						103.8,54.7 					"/>
					
						<linearGradient id="SVGID_00000114783589505020305120000016799472354656480147_" gradientUnits="userSpaceOnUse" x1="29.675" y1="53.395" x2="29.675" y2="102.025" gradientTransform="matrix(1 0 0 -1 0 117.99)">
						<stop  offset="0" style="stop-color:#FFFFFF;stop-opacity:0.5"/>
						<stop  offset="1" style="stop-color:#FFFFFF;stop-opacity:0"/>
					</linearGradient>
					<path style="fill:url(#SVGID_00000114783589505020305120000016799472354656480147_);" d="M37.7,30.2L13.2,54.7h32.9
						C40.6,47.5,37.8,38.9,37.7,30.2z"/>
				</g>
			</g>
		</g>
	</g>
	<g>
		<path class="st8" d="M161.3,58.6h28.8V83h-4.9v-2.3h-19.1v2.4h-4.7V62.6l-2.4,3.4c-1.1-1.4-3.2-3.9-5.1-5.8v22.9h-5V63.3
			c-2.2,2.2-4.4,4.1-6.6,5.7c-0.4-1.4-1.7-3.9-2.5-4.7c5.8-3.6,11.6-10.1,15-16.9h-13v-4.6h15.6l0.9-0.2l2.9,1.8
			c-1.5,4-3.6,7.9-6,11.5c1.6,1.3,4.7,4.1,6.3,5.6V58.6z M149.8,42.6c-0.9-2.2-2.8-5.5-4.2-8l4.1-1.8c1.5,2.5,3.4,5.6,4.3,7.7
			L149.8,42.6z M190.3,35v4.4H161V35H190.3z M187.6,42.4v13.2h-23.5V42.4H187.6z M166.1,62.8v4.8h7.1v-4.8H166.1z M166.1,76.5h7.1
			v-5h-7.1V76.5z M182.9,46.4h-14.2v5.1h14.2V46.4z M185.2,62.8h-7.4v4.8h7.4V62.8z M185.2,76.5v-5h-7.4v5H185.2z"/>
		<path class="st8" d="M242.5,58.7v24.4h-5.7v-2.3h-31.1v2.4h-5.4V58.7H242.5z M238.1,55h-33.4V34.5h33.4V55z M205.7,63.1v4.4h31.1
			v-4.4H205.7z M236.8,76.4v-4.6h-31.1v4.6H236.8z M232.5,38.7H210v4h22.5V38.7z M232.5,46.6H210v4.1h22.5V46.6z"/>
		<path class="st8" d="M271.8,64.2c-1.2-1.9-3.5-5.2-5.6-7.9v26.8H261V58.9c-2.2,5.8-4.9,11.2-7.8,14.6c-0.6-1.5-1.8-3.6-2.7-5
			c4-4.5,7.8-12.5,9.9-19.6h-8.2V44h8.8V32.5h5.2V44h7.2v4.9h-7.2v1.4c2.2,2.1,7.5,8,8.7,9.5L271.8,64.2z M301.7,48.9h-5.5v27.6
			c0,3.3-0.8,4.7-2.8,5.5c-2,0.9-5.3,1-10,1c-0.3-1.4-1.1-3.8-1.8-5.2c3.3,0.1,6.8,0.1,7.8,0.1c1,0,1.4-0.3,1.4-1.3V56.1
			c-4.2,7.3-10,14.3-15.7,18.6c-0.9-1.3-2.4-3.1-3.7-4.1c6.8-4.5,13.7-13.2,17.8-21.6h-14V44h15.6V32.5h5.4V44h5.5V48.9z"/>
		<path class="st8" d="M315,59.6c-1.1,6.2-3.4,13.9-6.6,17.9c-0.4-1.7-1.5-4.3-2.4-6c2.3-3,4.5-8.7,5.4-13.2L315,59.6z M322.4,58.3
			c1.2,1.6,5.1,8.8,6,10.5l-3.6,3.9c-0.9-2.8-3.2-8.2-4.6-11.3v21.6h-4.8V55.6h-8.6v-4.8h8.6V32.5h4.8v18.3h8.6v4.8h-8.6V60
			L322.4,58.3z M309.7,49.3c-0.2-3.3-1.4-8.5-2.8-12.4l3.7-0.9c1.5,3.9,2.7,9,3,12.4L309.7,49.3z M329.1,36.8
			c-1.4,4.2-3.1,9.3-4.5,12.5l-3.3-1c1.2-3.3,2.6-8.8,3.4-12.5L329.1,36.8z M350.5,67.9v15.2h-4.8V68.8l-16.3,3l-0.8-4.7l17.2-3.1
			V32.5h4.8V63l6.1-1l0.7,4.7L350.5,67.9z M338.7,59.9c-1.9-2-5.9-4.9-9.1-6.7l2.4-3.7c3.2,1.7,7.3,4.3,9.2,6.2L338.7,59.9z
			 M340.9,46.6c-1.7-2.2-5.5-5.1-8.6-7.1l2.6-3.5c3.1,1.9,6.9,4.6,8.7,6.7L340.9,46.6z"/>
		<path class="st8" d="M379.8,66.2c-0.8-1.7-2.6-4.7-4.3-7.3v24.1h-5V60.7c-2,5-4.5,9.7-7.1,12.9c-0.5-1.4-1.7-3.5-2.5-4.7
			c3.3-3.8,6.8-10.3,8.8-16.2h-8.1v-4.8h8.8v-7.4c-2.4,0.4-4.7,0.8-7,1.1c-0.2-1.1-0.9-2.9-1.4-4c6.2-1,13.2-2.6,17.6-4.5l2.9,4.2
			c-2.1,0.8-4.5,1.5-7.1,2.1v8.4h7.7v4.8h-7.7v0.8c1.7,1.7,6.3,7.3,7.4,8.8L379.8,66.2z M405.7,68.9v14.1h-5.1V69.8l-17.4,2.9
			l-0.8-4.9l18.2-3V32.5h5.1V64l6-1l0.8,4.8L405.7,68.9z M393.7,61.5c-1.8-2.4-5.8-5.9-9.2-8.2l3.3-3c3.3,2.2,7.5,5.5,9.4,7.8
			L393.7,61.5z M395.1,47c-1.7-2.3-5.4-5.7-8.6-8l3.4-2.9c3.1,2.2,7,5.4,8.8,7.7L395.1,47z"/>
		<path class="st8" d="M435.4,60.9c-2.1,0.6-4.2,1.2-6.3,1.8v14.5c0,2.6-0.6,4-2.2,4.8c-1.6,0.8-4.1,0.9-7.8,0.9
			c-0.2-1.2-0.9-3.4-1.5-4.6c2.4,0.1,4.7,0.1,5.4,0c0.8,0,1.1-0.3,1.1-1V64.1c-2.2,0.6-4.1,1.2-6.1,1.7l-1.3-4.9
			c2.1-0.5,4.6-1.1,7.4-1.8V48h-6.8v-4.7h6.8V32.5h5v10.8h5.8V48h-5.8v9.7l5.6-1.5L435.4,60.9z M465.1,54.1
			c-2.2,7.6-5.9,13.6-10.8,18.3c3.8,2.9,8.3,5,13.6,6.4c-1.2,1-2.6,3-3.3,4.4c-5.5-1.6-10.3-4.1-14.2-7.5c-4.5,3.3-9.6,5.7-15.1,7.3
			c-0.6-1.3-1.8-3.5-2.8-4.6c5.1-1.3,10-3.4,14.2-6.3c-3.6-4-6.5-8.7-8.6-14.2l0.7-0.2h-2.2V53H448v-7.6h-12.4v-4.7H448v-8.3h5.1
			v8.3h12.8v4.7h-12.8V53h7.8l0.9-0.2L465.1,54.1z M443.1,57.7c1.8,4.4,4.2,8.1,7.4,11.4c3.4-3.1,6.2-7,8.1-11.4H443.1z"/>
		<path class="st8" d="M491.4,77.1c0,2.4-0.4,3.9-1.9,4.7c-1.4,0.8-3.5,0.9-7,0.9c-0.2-1.3-0.7-3.5-1.3-4.8c2.1,0.1,4,0.1,4.6,0.1
			c0.7,0,0.9-0.3,0.9-1V63.8l-5.6,3.4l-1.6-3.6c-0.4,6.8-1.4,14.2-3.7,19.6c-0.9-0.8-3-1.9-4.2-2.3c3.4-7.7,3.6-18.7,3.6-26.7V34.4
			h16.1V77.1z M479.9,54.1c0,2.5-0.1,5.3-0.2,8.2c1.9-0.8,4.4-1.8,7.1-2.9V53l-2.1,1.8c-1-1.5-3-3.8-4.8-5.7V54.1z M479.9,39.1v7.7
			l1.7-1.2c1.8,1.5,3.8,3.5,5.2,5.2V39.1H479.9z M520.8,57.5c-1.9,6.8-5.3,12.1-9.7,16.2c3.3,2.2,7.2,3.9,11.5,4.9
			c-1.2,1-2.6,3-3.3,4.4c-4.7-1.3-8.8-3.4-12.3-6c-3.8,2.6-8.1,4.5-12.6,5.9c-0.6-1.4-1.8-3.4-2.8-4.4c4.1-1,8.1-2.6,11.5-4.9
			c-3.3-3.4-5.8-7.4-7.8-11.9l1.8-0.6h-3.5v-4.8h22.8l0.9-0.2L520.8,57.5z M503.6,40.6c0,5-1.5,10.9-8.4,14.7
			c-0.6-1-2.4-2.9-3.3-3.6c6.1-3.2,7.1-7.5,7.1-11.2v-6h17.4v12.4c0,1.5,0.1,2.1,0.8,2.1h2.6c0.7,0,1.8-0.1,2.5-0.3l0.4,4.1
			c-0.7,0.3-1.8,0.3-2.8,0.3h-3.2c-4.2,0-5.2-1.8-5.2-6.3v-7.6h-7.9V40.6z M500.3,61.2c1.6,3.6,3.9,6.7,6.8,9.4
			c2.9-2.6,5.4-5.7,7.1-9.4H500.3z"/>
		<path class="st8" d="M543.9,34.2c-1.5,3.9-3.4,7.8-5.5,11.5v37.4h-5V53.6c-1.5,2-3,3.9-4.6,5.5c-0.5-1.2-2-4-2.8-5.2
			c5.2-5.1,10.1-13.2,13.1-21.2L543.9,34.2z M571.8,54.8c0,0,0,1.5-0.1,2.2c-0.7,15.8-1.3,21.7-3,23.6c-1,1.3-2.1,1.8-3.6,1.9
			c-1.4,0.2-3.8,0.2-6.2,0.1c-0.1-1.4-0.6-3.4-1.4-4.7c2.2,0.2,4.1,0.3,5,0.3c0.8,0,1.3-0.1,1.8-0.8c0.9-1.2,1.7-5.8,2.2-17.9h-8.4
			C556.8,70.9,553,78.3,545,83c-0.7-1-2.4-3-3.5-3.8c7.3-3.7,10.5-10.1,11.6-19.6h-5.7v-4.7H571.8z M556.6,36.3
			c-2.3,8.2-6.5,15.6-11.8,20.4c-0.6-1.1-2.3-3.5-3.3-4.6c4.6-4,8.1-10.2,10-17.1L556.6,36.3z M567.9,34.3c1.6,7.1,5.2,13.9,10,17.3
			c-1,1.2-2.5,3.7-3.3,5.3c-4.7-4.2-8.5-10.9-10.6-17.7h-5.7v-4.9H567.9z"/>
		<path class="st8" d="M602.3,44.2c-0.9,1.9-1.9,3.8-2.9,5.5h26.1v27.5c0,2.8-0.6,4.3-2.5,5.1c-1.9,0.8-5,0.8-9.6,0.8
			c-0.2-1.4-0.9-3.6-1.6-5c3.3,0.2,6.6,0.2,7.5,0.1c0.9,0,1.2-0.3,1.2-1.1v-4.7h-22.2c-0.8,4.1-2.5,8.2-5.8,11.1
			c-0.7-1.2-2.7-3.3-3.7-4c4.6-4.2,5.1-10.3,5.1-15.4v-6.5c-2.4,2.8-5,5.3-8,7.4c-0.8-1.2-2.3-3-3.4-4c6.1-4.1,10.8-10.2,14.2-16.8
			h-13v-4.8h15.1c0.9-2.3,1.7-4.6,2.3-6.9l5.2,1.2c-0.6,1.9-1.2,3.8-2,5.7h27.5v4.8H602.3z M620.5,68.1v-4.8H599v0.9
			c0,1.2-0.1,2.5-0.2,3.9H620.5z M620.5,54.2H599V59h21.5V54.2z"/>
		<path class="st8" d="M657.4,36.4c-1.5,4.5-3.4,9.9-5.1,14.2c3.6,4.5,4.5,8.4,4.5,11.8c0,3.2-0.7,5.5-2.3,6.7
			c-0.8,0.6-1.8,0.9-3,1.1c-1,0.1-2.4,0.1-3.6,0.1c0-1.3-0.4-3.2-1.2-4.5c1.2,0.1,2,0.1,2.9,0.1c0.6,0,1.2-0.2,1.6-0.4
			c0.8-0.6,1-2,1-3.6c0-2.8-0.9-6.5-4.4-10.6c1.3-3.6,2.8-8.3,3.8-11.9h-6.8V83h-4.5V34.7h13l0.7-0.2L657.4,36.4z M687.3,64.1
			c-2.6,2.2-6,4.4-8.7,6c2.5,3.6,5.8,6.5,9.9,8.2c-1.1,1-2.8,3-3.4,4.4c-8.4-4.2-13.2-12.6-16-23.5h-4.5v16.9l8.8-2
			c0,1.4,0.1,3.5,0.3,4.6c-11,2.9-12.9,3.6-14.1,4.4c-0.4-1.2-1.5-3.2-2.3-4.1c0.9-0.6,2.3-1.9,2.3-4.2v-40h24.4v24.4h-10.5
			c0.8,2.5,1.7,5,2.8,7.3c2.6-1.8,5.6-4.1,7.5-6L687.3,64.1z M664.7,39.3v5.6h14.5v-5.6H664.7z M664.7,54.8h14.5v-5.7h-14.5V54.8z"
			/>
		<path class="st8" d="M713.2,35.7c-3.9,9-10.2,18-16.2,23.6c-0.9-1-3.2-3.2-4.5-4.2c6-5,11.8-13,15.1-21.1L713.2,35.7z M728.7,61.4
			c4.4,6,9.6,13.7,12.2,18.7l-5.2,2.8c-0.8-1.6-1.7-3.4-2.9-5.4c-27.7,2-31,2.3-33.4,3.1c-0.3-1.1-1.3-4-2-5.5
			c1.7-0.4,3.1-2,5.2-4.6c2.3-2.4,9.3-12,13.7-21.3l6,2.5c-4.5,8-10,16-15.6,22.4l23.1-1.5c-2-3.1-4.2-6.3-6.1-9.1L728.7,61.4z
			 M729.7,33.8c2.5,8.3,7.8,16.3,14.4,20.4c-1.2,1.2-3,3.5-4,5.1c-6.2-4.7-11.3-12.4-14.3-20.3h-9.6v-5.2H729.7z"/>
		<path class="st8" d="M794.9,76.1c0,3.3-0.7,5-2.7,5.8c-2.1,0.9-5.5,1-10.4,1c-0.2-1.5-1-4.1-1.8-5.6c3.5,0.2,7.2,0.2,8.3,0.1
			c1-0.1,1.4-0.3,1.4-1.4V40.8h-39v-4.9h44.3V76.1z M783.7,50.3H751v-4.5h32.6V50.3z M759.2,73.3v4h-5V55.4h26v17.9H759.2z
			 M759.2,59.8v9h16v-9H759.2z"/>
	</g>
</g>
</svg>
