<?xml version="1.0" encoding="utf-8"?>
<!-- Generator: Adobe Illustrator 28.1.0, SVG Export Plug-In . SVG Version: 6.00 Build 0)  -->
<svg version="1.1" id="_圖層_2" xmlns="http://www.w3.org/2000/svg" xmlns:xlink="http://www.w3.org/1999/xlink" x="0px" y="0px"
	 viewBox="0 0 1078 117" style="enable-background:new 0 0 1078 117;" xml:space="preserve">
<style type="text/css">
	.st0{fill:url(#SVGID_1_);}
	.st1{fill:url(#SVGID_00000129172396980505446760000001019996551324590485_);}
	.st2{fill:url(#SVGID_00000137133998380844452290000006164609267776999343_);}
	.st3{fill:url(#SVGID_00000081610289057712244360000014674429749553952413_);}
	.st4{fill:url(#SVGID_00000088133630798537579180000000086158250578815898_);}
	.st5{fill:url(#SVGID_00000084516519807153202370000011691927190459016322_);}
	.st6{fill:url(#SVGID_00000046335896913943171720000007766465798030072719_);}
	.st7{fill:url(#SVGID_00000056385953592931695110000011031202567840151471_);}
</style>
<g id="_圖層_1-2">
	
		<linearGradient id="SVGID_1_" gradientUnits="userSpaceOnUse" x1="58.495" y1="114.005" x2="58.495" y2="9.365" gradientTransform="matrix(1 0 0 -1 0 117.99)">
		<stop  offset="0" style="stop-color:#060357"/>
		<stop  offset="1" style="stop-color:#0F85E7"/>
	</linearGradient>
	<path class="st0" d="M99.9,99.9c-22.8,22.8-59.9,22.8-82.8,0c-22.8-22.8-22.8-59.9,0-82.8c22.8-22.8,59.9-22.8,82.8,0
		C122.7,39.9,122.7,77.1,99.9,99.9z M20.6,20.6c-20.9,20.9-20.9,54.8,0,75.7s54.8,20.9,75.7,0s20.9-54.8,0-75.7S41.5-0.2,20.6,20.6z
		"/>
	
		<linearGradient id="SVGID_00000166665457080511900760000013010607296023832230_" gradientUnits="userSpaceOnUse" x1="64.2212" y1="114.005" x2="64.2212" y2="9.365" gradientTransform="matrix(1 0 0 -1 0 117.99)">
		<stop  offset="0" style="stop-color:#060357"/>
		<stop  offset="1" style="stop-color:#0F85E7"/>
	</linearGradient>
	<path style="fill:url(#SVGID_00000166665457080511900760000013010607296023832230_);" d="M58,50.2l0.1,0.1l20.6-20.6L58.5,9.5
		l-2.3,2.3C46.9,23,47.5,39.7,58,50.2L58,50.2z"/>
	
		<linearGradient id="SVGID_00000107558850445423766490000012698347575538459012_" gradientUnits="userSpaceOnUse" x1="87.0787" y1="114.005" x2="87.0787" y2="9.365" gradientTransform="matrix(1 0 0 -1 3.539057e-03 117.9854)">
		<stop  offset="0" style="stop-color:#060357"/>
		<stop  offset="1" style="stop-color:#0F85E7"/>
	</linearGradient>
	<polygon style="fill:url(#SVGID_00000107558850445423766490000012698347575538459012_);" points="66.7,58.8 87.2,38.2 107.5,58.5 
		86.9,79.1 	"/>
	
		<linearGradient id="SVGID_00000067211704052938197890000002823411623486496134_" gradientUnits="userSpaceOnUse" x1="29.58" y1="114.005" x2="29.58" y2="9.365" gradientTransform="matrix(1 0 0 -1 0 117.99)">
		<stop  offset="0" style="stop-color:#060357"/>
		<stop  offset="1" style="stop-color:#0F85E7"/>
	</linearGradient>
	<path style="fill:url(#SVGID_00000067211704052938197890000002823411623486496134_);" d="M49.6,58.7c-7.8-7.8-11.8-18.1-11.9-28.4
		L9.5,58.5l20.3,20.3l20-20L49.6,58.7L49.6,58.7z"/>
	
		<linearGradient id="SVGID_00000182523188267585888630000011465902581789036717_" gradientUnits="userSpaceOnUse" x1="58.3313" y1="114.005" x2="58.3313" y2="9.365" gradientTransform="matrix(1 0 0 -1 -2.569306e-03 118.0001)">
		<stop  offset="0" style="stop-color:#060357"/>
		<stop  offset="1" style="stop-color:#0F85E7"/>
	</linearGradient>
	<polygon style="fill:url(#SVGID_00000182523188267585888630000011465902581789036717_);" points="38.2,87.3 58.2,67.3 78.4,87.6 
		58.5,107.5 	"/>
	
		<linearGradient id="SVGID_00000101068384422720432400000001439468413356555433_" gradientUnits="userSpaceOnUse" x1="64.2212" y1="53.395" x2="64.2212" y2="102.025" gradientTransform="matrix(1 0 0 -1 0 117.99)">
		<stop  offset="0" style="stop-color:#FFFFFF;stop-opacity:0.5"/>
		<stop  offset="1" style="stop-color:#FFFFFF;stop-opacity:0"/>
	</linearGradient>
	<path style="fill:url(#SVGID_00000101068384422720432400000001439468413356555433_);" d="M58.2,50.3l20.6-20.6L58.5,9.5l-2.3,2.3
		C46.9,23,47.5,39.7,58,50.2L58.2,50.3L58.2,50.3z"/>
	
		<linearGradient id="SVGID_00000112598396247197544300000012291124984801027996_" gradientUnits="userSpaceOnUse" x1="87.25" y1="53.395" x2="87.25" y2="102.025" gradientTransform="matrix(1 0 0 -1 0 117.99)">
		<stop  offset="0" style="stop-color:#FFFFFF;stop-opacity:0.5"/>
		<stop  offset="1" style="stop-color:#FFFFFF;stop-opacity:0"/>
	</linearGradient>
	<polygon style="fill:url(#SVGID_00000112598396247197544300000012291124984801027996_);" points="87.2,38.2 70.7,54.7 103.8,54.7 	
		"/>
	
		<linearGradient id="SVGID_00000059299662458109813980000007652521684612164239_" gradientUnits="userSpaceOnUse" x1="29.675" y1="53.395" x2="29.675" y2="102.025" gradientTransform="matrix(1 0 0 -1 0 117.99)">
		<stop  offset="0" style="stop-color:#FFFFFF;stop-opacity:0.5"/>
		<stop  offset="1" style="stop-color:#FFFFFF;stop-opacity:0"/>
	</linearGradient>
	<path style="fill:url(#SVGID_00000059299662458109813980000007652521684612164239_);" d="M37.7,30.2L13.2,54.7h32.9
		C40.6,47.5,37.8,38.9,37.7,30.2z"/>
	<g>
		<path d="M145.1,77.4V43.9h6.5v27.7h15.2v5.8H145.1z"/>
		<path d="M182.4,77.7c-6.9,0-12.3-4.7-12.3-11.8v-22h6.5v21.8c0,3.9,2.3,6.2,5.8,6.2c3.5,0,5.8-2.3,5.8-6.2V43.9h6.5v22
			C194.7,73,189.3,77.7,182.4,77.7z"/>
		<path d="M213.3,77.7c-3.9,0-6.7-1.3-9-3.5c-3.3-3.3-3.4-7.1-3.4-13.5c0-6.4,0-10.2,3.4-13.5c2.3-2.3,5.1-3.5,9-3.5
			c6.3,0,11.1,3.6,12.3,10.6h-6.7c-0.7-2.7-2.4-4.8-5.6-4.8c-1.8,0-3.2,0.7-4.2,1.7c-1.2,1.4-1.6,3.1-1.6,9.5c0,6.4,0.4,8.1,1.6,9.5
			c0.9,1.1,2.4,1.7,4.2,1.7c3.3,0,5-2,5.7-4.8h6.6C224.4,74.1,219.5,77.7,213.3,77.7z"/>
		<path d="M250.7,77.4l-8.6-15.3l-4.3,5.2v10.1h-6.5V43.9h6.5v14.6l11.8-14.6h8l-11.1,13.3l11.9,20.2H250.7z"/>
		<path d="M261.4,66.8v-5.7h14.5v5.7H261.4z"/>
		<path d="M282.6,77.4V43.9h6.5v33.5H282.6z"/>
		<path d="M316.8,77.4l-13.3-20.6v20.6H297V43.9h5.8l13.3,20.5V43.9h6.5v33.5H316.8z"/>
		<path d="M365.3,77.4V57.9l-6.4,12.7h-4.4L348,57.9v19.5h-6.5V43.9h6.5l8.8,18.1l8.7-18.1h6.5v33.5H365.3z"/>
		<path d="M398.7,77.4l-2-5.9h-11.9l-2,5.9H376l12.2-33.5h5.1l12.2,33.5H398.7z M390.9,53.8L386.6,66h8.3L390.9,53.8z"/>
		<path d="M419.2,49.7v27.7h-6.5V49.7h-8.8v-5.8H428v5.8H419.2z"/>
		<path d="M433.3,77.4V43.9h22.1v5.8h-15.5v7.9h13.2v5.8h-13.2v8.1h15.5v5.8H433.3z"/>
		<path d="M479.6,77.4L473,64h-4.7v13.4h-6.5V43.9h13.1c6.8,0,10.9,4.7,10.9,10.3c0,4.7-2.9,7.6-6.1,8.8l7.5,14.5H479.6z
			 M474.5,49.7h-6.2v8.9h6.2c2.9,0,4.8-1.8,4.8-4.4C479.3,51.6,477.4,49.7,474.5,49.7z"/>
		<path d="M492.6,77.4V43.9h6.5v33.5H492.6z"/>
		<path d="M526,77.4l-2-5.9h-11.9l-2,5.9h-6.8l12.2-33.5h5.1l12.2,33.5H526z M518.2,53.8L514,66h8.3L518.2,53.8z"/>
		<path d="M537,77.4V43.9h6.5v27.7h15.2v5.8H537z"/>
		<path d="M573.3,77.7c-5.1,0-8.9-1.1-12.2-4.4l4.2-4.2c2.1,2.1,5,2.8,8.1,2.8c3.9,0,6-1.5,6-4.2c0-1.1-0.3-2.1-1-2.8
			c-0.7-0.6-1.3-0.9-3-1.1l-4-0.6c-3-0.4-5-1.3-6.5-2.8c-1.6-1.6-2.4-3.8-2.4-6.6c0-6,4.4-10.2,11.7-10.2c4.6,0,8,1.1,10.8,3.9
			l-4.1,4.1c-2.1-2-4.7-2.3-6.9-2.3c-3.5,0-5.1,1.9-5.1,4.2c0,0.9,0.2,1.7,0.9,2.4c0.7,0.6,1.6,1.1,3.1,1.3l4,0.6
			c3.1,0.4,4.9,1.2,6.4,2.6c1.8,1.6,2.6,4.1,2.6,7.1C585.8,74,580.4,77.7,573.3,77.7z"/>
		<path d="M615.7,49.7v27.7h-6.5V49.7h-8.8v-5.8h24.1v5.8H615.7z"/>
		<path d="M629.8,77.4V43.9h22.1v5.8h-15.5v7.9h13.2v5.8h-13.2v8.1h15.5v5.8H629.8z"/>
		<path d="M669.5,77.7c-3.9,0-6.7-1.3-9-3.5c-3.3-3.3-3.4-7.1-3.4-13.5c0-6.4,0-10.2,3.4-13.5c2.3-2.3,5.1-3.5,9-3.5
			c6.3,0,11.1,3.6,12.3,10.6h-6.7c-0.7-2.7-2.4-4.8-5.6-4.8c-1.8,0-3.2,0.7-4.2,1.7c-1.2,1.4-1.6,3.1-1.6,9.5c0,6.4,0.4,8.1,1.6,9.5
			c0.9,1.1,2.4,1.7,4.2,1.7c3.3,0,5-2,5.7-4.8h6.6C680.6,74.1,675.7,77.7,669.5,77.7z"/>
		<path d="M705.4,77.4v-14H694v14h-6.5V43.9h6.5v13.7h11.4V43.9h6.5v33.5H705.4z"/>
		<path d="M739.6,77.4l-13.3-20.6v20.6h-6.5V43.9h5.8l13.3,20.5V43.9h6.5v33.5H739.6z"/>
		<path d="M773.4,74.2c-2.3,2.3-5.1,3.5-8.9,3.5c-3.9,0-6.7-1.3-9-3.5c-3.3-3.3-3.4-7.1-3.4-13.5c0-6.4,0-10.2,3.4-13.5
			c2.3-2.3,5.1-3.5,9-3.5c3.9,0,6.7,1.3,8.9,3.5c3.3,3.3,3.4,7.1,3.4,13.5C776.9,67.1,776.8,70.8,773.4,74.2z M768.7,51.2
			c-0.9-1.1-2.4-1.8-4.2-1.8s-3.2,0.7-4.2,1.8c-1.2,1.4-1.6,3-1.6,9.4c0,6.4,0.4,8,1.6,9.4c1,1.1,2.4,1.8,4.2,1.8s3.3-0.8,4.2-1.8
			c1.2-1.4,1.6-3,1.6-9.4C770.3,54.2,769.9,52.6,768.7,51.2z"/>
		<path d="M783.6,77.4V43.9h6.5v27.7h15.2v5.8H783.6z"/>
		<path d="M829.2,74.2c-2.3,2.3-5.1,3.5-8.9,3.5c-3.9,0-6.7-1.3-9-3.5c-3.3-3.3-3.4-7.1-3.4-13.5c0-6.4,0-10.2,3.4-13.5
			c2.3-2.3,5.1-3.5,9-3.5c3.9,0,6.7,1.3,8.9,3.5c3.3,3.3,3.4,7.1,3.4,13.5C832.7,67.1,832.6,70.8,829.2,74.2z M824.5,51.2
			c-0.9-1.1-2.4-1.8-4.2-1.8c-1.8,0-3.2,0.7-4.2,1.8c-1.2,1.4-1.6,3-1.6,9.4c0,6.4,0.4,8,1.6,9.4c1,1.1,2.4,1.8,4.2,1.8
			c1.8,0,3.3-0.8,4.2-1.8c1.2-1.4,1.6-3,1.6-9.4C826.1,54.2,825.7,52.6,824.5,51.2z"/>
		<path d="M859.6,73.9c-2.8,2.9-5.9,3.8-9.5,3.8c-3.8,0-6.6-1.3-8.9-3.5c-3.3-3.3-3.4-7.1-3.4-13.5c0-6.4,0-10.2,3.4-13.5
			c2.3-2.3,5.1-3.5,8.9-3.5c7.8,0,11.7,5.1,12.6,10.7h-6.6c-0.8-3.2-2.7-4.9-6-4.9c-1.8,0-3.2,0.7-4.2,1.8c-1.2,1.4-1.6,3-1.6,9.4
			c0,6.4,0.4,8.1,1.6,9.5c1,1.1,2.4,1.7,4.2,1.7c2,0,3.6-0.7,4.7-1.9c1.1-1.2,1.5-2.7,1.5-4.5v-1.2h-6.2v-5.5h12.7v4.9
			C862.8,68.5,862,71.3,859.6,73.9z"/>
		<path d="M881.8,63.7v13.8h-6.5V63.7l-10.1-19.8h7.1l6.3,13.5l6.2-13.5h7.1L881.8,63.7z"/>
		<path d="M918.1,77.7c-3.9,0-6.7-1.3-9-3.5c-3.3-3.3-3.4-7.1-3.4-13.5c0-6.4,0-10.2,3.4-13.5c2.3-2.3,5.1-3.5,9-3.5
			c6.3,0,11.1,3.6,12.3,10.6h-6.7c-0.7-2.7-2.4-4.8-5.6-4.8c-1.8,0-3.2,0.7-4.2,1.7c-1.2,1.4-1.6,3.1-1.6,9.5c0,6.4,0.4,8.1,1.6,9.5
			c0.9,1.1,2.4,1.7,4.2,1.7c3.3,0,5-2,5.7-4.8h6.6C929.2,74.1,924.3,77.7,918.1,77.7z"/>
		<path d="M955.8,74.2c-2.3,2.3-5.1,3.5-8.9,3.5c-3.9,0-6.7-1.3-9-3.5c-3.3-3.3-3.4-7.1-3.4-13.5c0-6.4,0-10.2,3.4-13.5
			c2.3-2.3,5.1-3.5,9-3.5c3.9,0,6.7,1.3,8.9,3.5c3.3,3.3,3.4,7.1,3.4,13.5C959.2,67.1,959.1,70.8,955.8,74.2z M951,51.2
			c-0.9-1.1-2.4-1.8-4.2-1.8c-1.8,0-3.2,0.7-4.2,1.8c-1.2,1.4-1.6,3-1.6,9.4c0,6.4,0.4,8,1.6,9.4c1,1.1,2.4,1.8,4.2,1.8
			c1.8,0,3.3-0.8,4.2-1.8c1.2-1.4,1.6-3,1.6-9.4C952.7,54.2,952.3,52.6,951,51.2z"/>
		<path d="M965.2,77.4v-7h7v7H965.2z"/>
		<path d="M978.6,85.2V70.7h6.7V80L978.6,85.2z"/>
		<path d="M1003.4,77.4V43.9h6.5v27.7h15.2v5.8H1003.4z"/>
		<path d="M1039.6,49.7v27.7h-6.5V49.7h-8.8v-5.8h24.1v5.8H1039.6z"/>
		<path d="M1075.9,72.5c-2.4,3.3-5.6,4.9-10.1,4.9h-12.1V43.9h12.1c4.6,0,7.7,1.6,10.1,4.9c2.1,2.9,2.1,6.3,2.1,11.9
			C1078,66.2,1077.9,69.6,1075.9,72.5z M1070.1,51.8c-1.1-1.4-2.7-2.1-4.9-2.1h-5v21.9h5c2.2,0,3.8-0.7,4.9-2.1
			c1.2-1.5,1.4-3.6,1.4-8.9C1071.4,55.4,1071.3,53.3,1070.1,51.8z"/>
	</g>
</g>
</svg>
