<?xml version="1.0" encoding="UTF-8"?><svg id="_圖層_2" xmlns="http://www.w3.org/2000/svg" xmlns:xlink="http://www.w3.org/1999/xlink" viewBox="0 0 787.35 116.99"><defs><style>.cls-1{fill:#231815;}.cls-2{fill:url(#_未命名漸層_5);}.cls-3{fill:url(#_未命名漸層_5-2);}.cls-4{fill:url(#_未命名漸層_5-5);}.cls-5{fill:url(#_未命名漸層_5-3);}.cls-6{fill:url(#_未命名漸層_5-4);}.cls-7{fill:url(#_未命名漸層_43);}.cls-8{fill:url(#_未命名漸層_43-2);}.cls-9{fill:url(#_未命名漸層_43-3);}</style><linearGradient id="_未命名漸層_5" x1="58.5" y1="3.99" x2="58.5" y2="108.63" gradientUnits="userSpaceOnUse"><stop offset="0" stop-color="#060357"/><stop offset="1" stop-color="#0f85e7"/></linearGradient><linearGradient id="_未命名漸層_5-2" x1="64.22" y1="3.99" x2="64.22" y2="108.63" xlink:href="#_未命名漸層_5"/><linearGradient id="_未命名漸層_5-3" x1="87.09" y1="3.99" x2="87.09" y2="108.63" gradientTransform="translate(66.99 -44.4) rotate(45)" xlink:href="#_未命名漸層_5"/><linearGradient id="_未命名漸層_5-4" x1="29.58" y1="3.99" x2="29.58" y2="108.63" xlink:href="#_未命名漸層_5"/><linearGradient id="_未命名漸層_5-5" x1="58.34" x2="58.34" y2="108.63" gradientTransform="translate(78.89 -15.65) rotate(45)" xlink:href="#_未命名漸層_5"/><linearGradient id="_未命名漸層_43" x1="64.22" y1="64.6" x2="64.22" y2="15.97" gradientUnits="userSpaceOnUse"><stop offset="0" stop-color="#fff" stop-opacity=".5"/><stop offset="1" stop-color="#fff" stop-opacity="0"/></linearGradient><linearGradient id="_未命名漸層_43-2" x1="87.25" y1="64.6" x2="87.25" y2="15.97" xlink:href="#_未命名漸層_43"/><linearGradient id="_未命名漸層_43-3" x1="29.68" y1="64.6" x2="29.68" y2="15.97" xlink:href="#_未命名漸層_43"/></defs><g id="_圖層_1-2"><path class="cls-2" d="m99.88,99.88c-22.82,22.82-59.95,22.82-82.76,0-22.82-22.82-22.82-59.95,0-82.76,22.82-22.82,59.95-22.82,82.76,0,22.82,22.82,22.82,59.95,0,82.76ZM20.65,20.65C-.22,41.52-.22,75.47,20.65,96.34c20.87,20.87,54.82,20.87,75.69,0,20.87-20.87,20.87-54.82,0-75.69C75.47-.22,41.52-.22,20.65,20.65Z"/><path class="cls-3" d="m58.05,50.2l.13.13,20.59-20.59-20.27-20.27-2.3,2.3c-9.27,11.23-8.65,27.93,1.85,38.44Z"/><rect class="cls-5" x="72.53" y="44.32" width="29.12" height="28.67" transform="translate(-15.97 78.76) rotate(-45)"/><path class="cls-6" d="m49.58,58.68c-7.84-7.84-11.79-18.12-11.87-28.42l-28.24,28.24,20.27,20.27,19.96-19.96-.13-.13Z"/><rect class="cls-4" x="44.22" y="73.07" width="28.23" height="28.67" transform="translate(-44.72 66.86) rotate(-45)"/><path class="cls-7" d="m58.18,50.33l20.59-20.59-20.27-20.27-2.3,2.3c-9.27,11.23-8.65,27.93,1.85,38.44l.13.13Z"/><polygon class="cls-8" points="87.25 38.22 70.73 54.75 103.78 54.75 87.25 38.22"/><path class="cls-9" d="m37.71,30.25l-24.49,24.49h32.92c-5.55-7.19-8.36-15.83-8.43-24.49Z"/><path class="cls-1" d="m146.45,71.15v-32.59h6.36v26.92h14.79v5.68h-21.15Z"/><path class="cls-1" d="m183.71,71.43c-6.68,0-11.99-4.53-11.99-11.44v-21.42h6.36v21.19c0,3.75,2.2,6,5.63,6s5.68-2.24,5.68-6v-21.19h6.32v21.42c0,6.91-5.31,11.44-11.99,11.44Z"/><path class="cls-1" d="m213.69,71.43c-3.57,0-6.5-1.28-8.79-3.57-3.3-3.3-3.2-7.37-3.2-13s-.09-9.7,3.2-13c2.29-2.29,5.22-3.57,8.79-3.57,6.09,0,10.85,3.48,11.99,10.3h-6.45c-.64-2.61-2.29-4.62-5.49-4.62-1.74,0-3.16.64-4.07,1.69-1.24,1.37-1.6,2.93-1.6,9.2s.37,7.83,1.6,9.2c.92,1.05,2.33,1.69,4.07,1.69,3.2,0,4.85-2.01,5.49-4.62h6.45c-1.14,6.82-5.95,10.3-11.99,10.3Z"/><path class="cls-1" d="m250.13,71.15l-8.38-14.83-4.21,5.04v9.8h-6.36v-32.59h6.36v14.19l11.49-14.19h7.74l-10.8,12.95,11.58,19.64h-7.42Z"/><path class="cls-1" d="m260.52,60.85v-5.54h14.1v5.54h-14.1Z"/><path class="cls-1" d="m281.12,71.15v-32.59h6.36v32.59h-6.36Z"/><path class="cls-1" d="m314.35,71.15l-12.91-20v20h-6.36v-32.59h5.68l12.91,19.96v-19.96h6.36v32.59h-5.68Z"/><path class="cls-1" d="m338.25,71.15v-32.59h6.36v32.59h-6.36Z"/><path class="cls-1" d="m371.48,71.15l-12.91-20v20h-6.36v-32.59h5.68l12.91,19.96v-19.96h6.36v32.59h-5.68Z"/><path class="cls-1" d="m405.13,68.04c-2.15,2.15-5.22,3.11-8.61,3.11h-11.76v-32.59h11.76c3.39,0,6.45.96,8.61,3.11,3.66,3.66,3.3,8.15,3.3,13.05s.37,9.66-3.3,13.32Zm-4.44-21.79c-1.1-1.33-2.56-2.01-4.76-2.01h-4.81v21.24h4.81c2.2,0,3.66-.69,4.76-2.01,1.19-1.46,1.37-3.8,1.37-8.74s-.18-7-1.37-8.47Z"/><path class="cls-1" d="m426.41,71.43c-6.68,0-11.99-4.53-11.99-11.44v-21.42h6.36v21.19c0,3.75,2.2,6,5.63,6s5.68-2.24,5.68-6v-21.19h6.32v21.42c0,6.91-5.31,11.44-11.99,11.44Z"/><path class="cls-1" d="m454.47,71.43c-4.94,0-8.7-1.05-11.9-4.3l4.12-4.12c2.06,2.06,4.85,2.75,7.87,2.75,3.75,0,5.77-1.42,5.77-4.03,0-1.14-.32-2.11-1.01-2.75-.64-.59-1.37-.92-2.88-1.14l-3.94-.55c-2.79-.41-4.85-1.28-6.32-2.7-1.56-1.56-2.33-3.66-2.33-6.41,0-5.81,4.3-9.89,11.35-9.89,4.49,0,7.74,1.1,10.53,3.8l-4.03,3.98c-2.06-1.97-4.53-2.24-6.68-2.24-3.39,0-5.04,1.88-5.04,4.12,0,.82.28,1.69.96,2.33.64.6,1.69,1.1,3.02,1.28l3.85.55c2.98.41,4.85,1.24,6.23,2.52,1.74,1.65,2.52,4.03,2.52,6.91,0,6.32-5.26,9.89-12.08,9.89Z"/><path class="cls-1" d="m485,44.24v26.92h-6.36v-26.92h-8.51v-5.68h23.39v5.68h-8.51Z"/><path class="cls-1" d="m515.99,71.15l-6.36-13h-4.58v13h-6.36v-32.59h12.77c6.64,0,10.57,4.53,10.57,9.98,0,4.58-2.79,7.42-5.95,8.56l7.28,14.05h-7.37Zm-4.94-26.92h-6v8.61h6c2.79,0,4.62-1.79,4.62-4.3s-1.83-4.3-4.62-4.3Z"/><path class="cls-1" d="m528.63,71.15v-32.59h6.36v32.59h-6.36Z"/><path class="cls-1" d="m542.59,71.15v-32.59h21.47v5.68h-15.11v7.64h12.86v5.68h-12.86v7.92h15.11v5.68h-21.47Z"/><path class="cls-1" d="m579.26,71.43c-4.94,0-8.7-1.05-11.9-4.3l4.12-4.12c2.06,2.06,4.85,2.75,7.87,2.75,3.75,0,5.77-1.42,5.77-4.03,0-1.14-.32-2.11-1.01-2.75-.64-.59-1.37-.92-2.88-1.14l-3.94-.55c-2.79-.41-4.85-1.28-6.32-2.7-1.56-1.56-2.33-3.66-2.33-6.41,0-5.81,4.3-9.89,11.35-9.89,4.49,0,7.74,1.1,10.53,3.8l-4.03,3.98c-2.06-1.97-4.53-2.24-6.68-2.24-3.39,0-5.04,1.88-5.04,4.12,0,.82.28,1.69.96,2.33.64.6,1.69,1.1,3.02,1.28l3.84.55c2.98.41,4.85,1.24,6.23,2.52,1.74,1.65,2.52,4.03,2.52,6.91,0,6.32-5.26,9.89-12.08,9.89Z"/><path class="cls-1" d="m618.85,71.43c-3.57,0-6.5-1.28-8.79-3.57-3.3-3.3-3.2-7.37-3.2-13s-.09-9.7,3.2-13c2.29-2.29,5.22-3.57,8.79-3.57,6.09,0,10.85,3.48,11.99,10.3h-6.45c-.64-2.61-2.29-4.62-5.49-4.62-1.74,0-3.16.64-4.07,1.69-1.24,1.37-1.6,2.93-1.6,9.2s.37,7.83,1.6,9.2c.92,1.05,2.33,1.69,4.07,1.69,3.2,0,4.85-2.01,5.49-4.62h6.45c-1.14,6.82-5.95,10.3-11.99,10.3Z"/><path class="cls-1" d="m656.07,67.86c-2.29,2.29-5.08,3.57-8.79,3.57s-6.55-1.28-8.83-3.57c-3.3-3.3-3.2-7.37-3.2-13s-.09-9.7,3.2-13c2.29-2.29,5.13-3.57,8.83-3.57s6.5,1.28,8.79,3.57c3.3,3.3,3.25,7.37,3.25,13s.05,9.7-3.25,13Zm-4.71-22.16c-.92-1.05-2.33-1.74-4.07-1.74s-3.2.69-4.12,1.74c-1.24,1.37-1.56,2.88-1.56,9.16s.32,7.78,1.56,9.16c.92,1.05,2.38,1.74,4.12,1.74s3.16-.69,4.07-1.74c1.24-1.37,1.6-2.88,1.6-9.16s-.37-7.78-1.6-9.16Z"/><path class="cls-1" d="m665.13,71.15v-6.77h6.82v6.77h-6.82Z"/><path class="cls-1" d="m678.17,78.71v-14.05h6.55v9.02l-6.55,5.04Z"/><path class="cls-1" d="m702.25,71.15v-32.59h6.36v26.92h14.79v5.68h-21.15Z"/><path class="cls-1" d="m737.36,44.24v26.92h-6.36v-26.92h-8.51v-5.68h23.39v5.68h-8.51Z"/><path class="cls-1" d="m771.42,68.04c-2.15,2.15-5.22,3.11-8.61,3.11h-11.76v-32.59h11.76c3.39,0,6.45.96,8.61,3.11,3.66,3.66,3.3,8.15,3.3,13.05s.37,9.66-3.3,13.32Zm-4.44-21.79c-1.1-1.33-2.56-2.01-4.76-2.01h-4.81v21.24h4.81c2.2,0,3.66-.69,4.76-2.01,1.19-1.46,1.37-3.8,1.37-8.74s-.18-7-1.37-8.47Z"/><path class="cls-1" d="m780.53,71.15v-6.77h6.82v6.77h-6.82Z"/></g></svg>