<svg width="675" height="117" viewBox="0 0 675 117" fill="none" xmlns="http://www.w3.org/2000/svg">
<g clip-path="url(#clip0_904_2)">
<path d="M99.8828 99.8799C77.0628 122.7 39.9328 122.7 17.1228 99.8799C-5.69719 77.0599 -5.69719 39.9299 17.1228 17.1199C39.9428 -5.70012 77.0728 -5.70012 99.8828 17.1199C122.703 39.9399 122.703 77.0699 99.8828 99.8799ZM20.6528 20.6499C-0.21719 41.5199 -0.21719 75.4699 20.6528 96.3399C41.5228 117.21 75.4728 117.21 96.3428 96.3399C117.213 75.4699 117.213 41.5199 96.3428 20.6499C75.4728 -0.220119 41.5228 -0.220119 20.6528 20.6499Z" fill="url(#paint0_linear_904_2)"/>
<path d="M58.0552 50.1997L58.1852 50.3297L78.7752 29.7397L58.5052 9.46973L56.2052 11.7697C46.9352 22.9997 47.5552 39.6997 58.0552 50.2097V50.1997Z" fill="url(#paint1_linear_904_2)"/>
<path d="M87.255 38.2215L66.6641 58.8125L86.9368 79.0852L107.528 58.4943L87.255 38.2215Z" fill="url(#paint2_linear_904_2)"/>
<path d="M49.5866 58.6798C41.7466 50.8398 37.7966 40.5598 37.7166 30.2598L9.47656 58.4998L29.7466 78.7698L49.7066 58.8098L49.5766 58.6798H49.5866Z" fill="url(#paint3_linear_904_2)"/>
<path d="M58.1882 67.2981L38.2266 87.2598L58.4993 107.533L78.4609 87.5709L58.1882 67.2981Z" fill="url(#paint4_linear_904_2)"/>
<path d="M58.1852 50.3297L78.7752 29.7397L58.5052 9.46973L56.2052 11.7697C46.9352 22.9997 47.5552 39.6997 58.0552 50.2097L58.1852 50.3397V50.3297Z" fill="url(#paint5_linear_904_2)"/>
<path d="M87.2544 38.2197L70.7344 54.7497H103.784L87.2544 38.2197Z" fill="url(#paint6_linear_904_2)"/>
<path d="M37.7166 30.25L13.2266 54.74H46.1466C40.5966 47.55 37.7866 38.91 37.7166 30.25Z" fill="url(#paint7_linear_904_2)"/>
<path d="M159.787 59.1202H188.107V82.1702H183.267V79.9802H164.457V82.2802H159.787V62.9402L157.397 66.1302C156.307 64.7702 154.247 62.4702 152.397 60.6402V82.2802H147.447V63.5702C145.327 65.6602 143.157 67.4402 140.927 68.9502C140.547 67.6402 139.237 65.2902 138.477 64.4002C144.187 61.0002 149.947 54.9402 153.257 48.4102H140.487V44.0202H155.817L156.687 43.8602L159.517 45.5902C157.997 49.3502 155.987 53.0602 153.597 56.4102C155.177 57.6602 158.267 60.3302 159.797 61.6902V59.1302L159.787 59.1202ZM148.477 43.9102C147.607 41.8702 145.817 38.6802 144.287 36.3302L148.257 34.6602C149.837 37.0102 151.627 39.9902 152.547 41.9802L148.467 43.9102H148.477ZM188.367 36.7502V40.8802H159.507V36.7502H188.367ZM185.707 43.7502V56.2402H162.557V43.7502H185.707ZM164.457 63.0902V67.6402H171.417V63.0902H164.457ZM164.457 76.0502H171.417V71.3502H164.457V76.0502ZM181.037 47.5702H167.067V52.4302H181.037V47.5702ZM183.267 63.0902H175.987V67.6402H183.267V63.0902ZM183.267 76.0502V71.3502H175.987V76.0502H183.267Z" fill="white"/>
<path d="M239.733 59.18V82.33H234.133V80.14H203.533V82.44H198.203V59.18H239.723H239.733ZM235.383 55.68H202.443V36.29H235.383V55.68ZM203.533 63.36V67.54H234.133V63.36H203.533ZM234.133 75.96V71.57H203.533V75.96H234.133ZM229.843 40.27H207.723V44.09H229.843V40.27ZM229.843 47.8H207.723V51.72H229.843V47.8Z" fill="white"/>
<path d="M297.619 73.6502V78.5102H248.969V73.6502H270.219V45.0102H251.849V39.9902H294.789V45.0102H275.879V73.6502H297.619Z" fill="white"/>
<path d="M322.935 74.07C319.135 76.89 312.335 79.61 306.735 80.81C306.025 79.76 304.725 78.14 303.695 77.26C309.185 76.48 315.765 74.54 319.235 72.4L322.935 74.07ZM351.365 66.13V70.21H329.945V82.33H324.995V70.21H303.905V66.13H324.995V62.99H308.965V59.33H324.995V56.19H306.295V52.38H317.215C316.675 51.07 315.745 49.24 314.825 47.89L317.975 47.16H304.115V43.29H312.215C311.395 41.25 309.765 38.38 308.245 36.23L312.645 34.77C314.335 37.02 316.235 40.21 316.995 42.24L314.115 43.28H320.205V34.29H324.935V43.28H330.315V34.29H335.095V43.28H341.015L338.895 42.6C340.195 40.51 341.885 37.22 342.695 34.87L347.915 36.18C346.445 38.74 344.815 41.35 343.405 43.29H351.175V47.16H336.935L341.175 48.21C339.975 49.78 338.725 51.19 337.645 52.39H349.165V56.2H329.925V59.34H346.615V63H329.925V66.14H351.345L351.365 66.13ZM319.785 47.16C320.875 48.62 321.905 50.56 322.335 51.76L319.885 52.39H334.725L332.765 51.81C333.795 50.5 335.045 48.52 335.805 47.16H319.775H319.785ZM336.195 72.09C340.975 73.76 347.605 76.27 351.255 77.94L347.885 80.76C344.515 79.14 337.885 76.37 332.935 74.54L336.195 72.08V72.09Z" fill="white"/>
<path d="M376.095 76.5797C376.095 78.8297 375.665 80.2397 374.245 81.0197C372.835 81.7997 370.765 81.9097 367.395 81.9097C367.235 80.7097 366.685 78.5697 366.095 77.3597C368.165 77.4097 370.065 77.4097 370.665 77.4097C371.315 77.4097 371.535 77.1497 371.535 76.4697V63.9797L366.045 67.2197L364.465 63.8197C364.085 70.2997 363.105 77.2497 360.825 82.3697C359.905 81.5897 357.835 80.5397 356.695 80.1697C360.015 72.9097 360.225 62.5597 360.225 54.9297V36.2197H376.095V76.5697V76.5797ZM364.735 54.8397C364.735 57.1897 364.685 59.8597 364.575 62.5697C366.475 61.8397 368.925 60.8497 371.535 59.7997V53.8397L369.465 55.5097C368.435 54.0997 366.525 51.9597 364.735 50.1297V54.8297V54.8397ZM364.735 40.6797V47.9997L366.415 46.8497C368.155 48.3097 370.115 50.1897 371.525 51.7597V40.6797H364.735ZM405.065 58.0797C403.165 64.5597 399.845 69.5797 395.555 73.4397C398.815 75.5297 402.625 77.0997 406.855 78.0897C405.715 79.0797 404.245 80.9597 403.595 82.2697C398.975 81.0197 394.955 79.0797 391.525 76.5697C387.825 79.0297 383.585 80.8597 379.135 82.1597C378.535 80.8497 377.395 78.9697 376.415 77.9797C380.435 76.9897 384.355 75.4697 387.775 73.3797C384.565 70.1897 382.015 66.3797 380.055 62.0897L381.845 61.5697H378.425V57.0197H400.925L401.795 56.8597L405.055 58.0597L405.065 58.0797ZM388.165 42.0397C388.165 46.7997 386.695 52.3897 379.845 55.9897C379.245 55.0497 377.505 53.2197 376.585 52.5897C382.615 49.5597 383.545 45.4797 383.545 41.9797V36.3397H400.715V48.0497C400.715 49.5097 400.765 50.0397 401.475 50.0397H404.085C404.735 50.0397 405.875 49.9397 406.535 49.7297L406.915 53.6497C406.205 53.9097 405.125 53.9597 404.195 53.9597H401.045C396.865 53.9597 395.935 52.2897 395.935 47.9997V40.8397H388.165V42.0397ZM384.845 61.5897C386.425 64.9897 388.705 67.9697 391.585 70.5297C394.465 68.0697 396.855 65.0897 398.545 61.5897H384.845Z" fill="white"/>
<path d="M427.774 35.9704C426.304 39.6304 424.454 43.3904 422.394 46.8904V82.2703H417.444V54.3604C415.974 56.2904 414.454 58.0704 412.934 59.5904C412.444 58.4404 410.974 55.8304 410.164 54.6804C415.274 49.8204 420.114 42.1904 423.044 34.6104L427.774 35.9704ZM455.274 55.4604C455.274 55.4604 455.274 56.8704 455.224 57.5004C454.514 72.5004 453.924 78.0404 452.294 79.8704C451.314 81.1204 450.224 81.5403 448.764 81.7003C447.354 81.9103 445.064 81.9104 442.674 81.8004C442.564 80.4904 442.074 78.6104 441.264 77.3604C443.434 77.5704 445.344 77.6204 446.214 77.6204C447.034 77.6204 447.514 77.5204 448.004 76.8904C448.924 75.7904 449.634 71.4003 450.174 59.9604H441.914C440.504 70.7304 436.804 77.7803 428.924 82.1703C428.274 81.1803 426.534 79.3503 425.444 78.5603C432.674 75.0603 435.824 69.0003 436.914 59.9604H431.264V55.4704H455.284L455.274 55.4604ZM440.384 38.0004C438.044 45.7304 433.914 52.7904 428.754 57.3404C428.154 56.2904 426.524 54.0004 425.544 53.0004C430.054 49.2904 433.534 43.3304 435.384 36.8004L440.384 38.0004ZM451.474 36.0704C453.054 42.7604 456.634 49.1904 461.314 52.4804C460.284 53.6304 458.814 55.9804 458.104 57.5004C453.484 53.5304 449.734 47.1504 447.664 40.7204H442.014V36.0704H451.474Z" fill="white"/>
<path d="M485.328 45.4296C484.408 47.2096 483.478 48.9796 482.448 50.6596H508.158V76.6896C508.158 79.2996 507.618 80.7696 505.658 81.4996C503.758 82.2796 500.708 82.2796 496.198 82.2796C496.038 80.9696 495.278 78.8796 494.618 77.5796C497.828 77.7396 501.088 77.7396 502.008 77.6796C502.928 77.6796 503.208 77.4196 503.208 76.6296V72.1396H481.308C480.488 76.0596 478.808 79.8696 475.598 82.6996C474.948 81.5996 472.938 79.5596 471.958 78.8796C476.528 74.8596 476.958 69.1596 476.958 64.2996V58.1296C474.618 60.7996 472.008 63.1496 469.078 65.1296C468.318 64.0296 466.798 62.3096 465.758 61.3696C471.738 57.4996 476.358 51.6996 479.728 45.4296H466.958V40.8796H481.848C482.768 38.6796 483.538 36.4896 484.128 34.3496L489.288 35.4996C488.688 37.2796 488.088 39.1096 487.328 40.8796H514.398V45.4296H485.318H485.328ZM503.208 68.0596V63.5096H482.008V64.3996C482.008 65.5496 481.958 66.7996 481.848 68.0596H503.208ZM503.208 54.9396H482.008V59.4296H503.208V54.9396Z" fill="white"/>
<path d="M539.567 38.1105C538.047 42.4005 536.197 47.5205 534.517 51.5405C538.107 55.8305 538.917 59.4805 538.917 62.6705C538.917 65.8605 538.267 67.9005 536.687 69.0505C535.877 69.6205 534.947 69.9405 533.757 70.0905C532.777 70.1905 531.417 70.1905 530.227 70.1905C530.227 68.9905 529.797 67.1605 529.027 65.9605C530.167 66.0105 531.037 66.0605 531.857 66.0105C532.457 66.0105 532.997 65.8505 533.437 65.5905C534.197 65.0205 534.467 63.7105 534.467 62.1405C534.467 59.4705 533.597 56.0305 530.117 52.1105C531.417 48.6605 532.837 44.2705 533.817 40.8205H527.127V82.1605H522.727V36.4805H535.557L536.267 36.2705L539.587 38.1005L539.567 38.1105ZM569.027 64.3505C566.417 66.3905 563.157 68.4805 560.437 70.0505C562.937 73.5005 566.147 76.2205 570.167 77.8405C569.077 78.7805 567.447 80.7105 566.797 81.9705C558.477 77.9505 553.757 70.0005 551.087 59.7605H546.687V75.8005L555.387 73.8705C555.387 75.2305 555.437 77.1605 555.657 78.2605C544.787 81.0305 542.937 81.6605 541.797 82.3905C541.417 81.2905 540.327 79.3605 539.567 78.4705C540.487 77.9505 541.797 76.6905 541.797 74.4505V36.6105H565.817V59.7605H555.487C556.247 62.1605 557.117 64.4605 558.257 66.6605C560.807 64.9405 563.797 62.7405 565.647 60.9605L569.017 64.3605L569.027 64.3505ZM546.687 40.8305V46.1105H560.927V40.8305H546.687ZM546.687 55.5205H560.927V50.0805H546.687V55.5205Z" fill="white"/>
<path d="M594.456 37.4302C590.596 45.9502 584.456 54.5202 578.476 59.8002C577.606 58.8102 575.326 56.7702 574.016 55.7802C579.936 51.0802 585.596 43.4502 588.906 35.7602L594.446 37.4302H594.456ZM609.726 61.8402C614.076 67.4802 619.186 74.8002 621.736 79.5002L616.626 82.1702C615.866 80.6502 614.946 78.9802 613.746 77.1002C586.516 79.0302 583.256 79.2402 580.866 80.1302C580.646 79.0302 579.616 76.3202 578.856 74.9002C580.486 74.4802 581.956 72.9102 584.076 70.5102C586.306 68.2102 593.206 59.1202 597.556 50.3902L603.426 52.6902C598.966 60.3202 593.536 67.9002 588.096 73.9102L610.866 72.6002C608.856 69.5702 606.736 66.5402 604.836 63.9202L609.726 61.8302V61.8402ZM610.756 35.6602C613.256 43.5002 618.476 51.1302 624.946 55.0002C623.746 56.1002 621.956 58.2902 621.036 59.8102C614.896 55.3702 609.896 48.0502 606.906 40.6302H597.446V35.6702H610.766L610.756 35.6602Z" fill="white"/>
<path d="M674.895 75.6398C674.895 78.7198 674.245 80.3398 672.235 81.1298C670.165 82.0198 666.795 82.1198 661.965 82.0698C661.745 80.6598 660.935 78.1998 660.225 76.7898C663.705 76.9498 667.345 76.9498 668.375 76.8898C669.405 76.8398 669.735 76.5798 669.735 75.5798V42.2398H631.305V37.5898H674.895V75.6398ZM663.865 51.2298H631.745V46.9398H663.865V51.2298ZM639.785 73.0198V76.8298H634.895V56.0798H660.495V73.0098H639.785V73.0198ZM639.785 60.2698V68.7898H655.545V60.2698H639.785Z" fill="white"/>
</g>
<defs>
<linearGradient id="paint0_linear_904_2" x1="58.5028" y1="3.98988" x2="58.5028" y2="108.63" gradientUnits="userSpaceOnUse">
<stop stop-color="#060357"/>
<stop offset="1" stop-color="#0F85E7"/>
</linearGradient>
<linearGradient id="paint1_linear_904_2" x1="64.2252" y1="3.98973" x2="64.2252" y2="108.63" gradientUnits="userSpaceOnUse">
<stop stop-color="#060357"/>
<stop offset="1" stop-color="#0F85E7"/>
</linearGradient>
<linearGradient id="paint2_linear_904_2" x1="87.1022" y1="3.98536" x2="87.1022" y2="108.625" gradientUnits="userSpaceOnUse">
<stop stop-color="#060357"/>
<stop offset="1" stop-color="#0F85E7"/>
</linearGradient>
<linearGradient id="paint3_linear_904_2" x1="29.5866" y1="3.98977" x2="29.5866" y2="108.63" gradientUnits="userSpaceOnUse">
<stop stop-color="#060357"/>
<stop offset="1" stop-color="#0F85E7"/>
</linearGradient>
<linearGradient id="paint4_linear_904_2" x1="58.3474" y1="3.99987" x2="58.3474" y2="108.64" gradientUnits="userSpaceOnUse">
<stop stop-color="#060357"/>
<stop offset="1" stop-color="#0F85E7"/>
</linearGradient>
<linearGradient id="paint5_linear_904_2" x1="64.2252" y1="64.5997" x2="64.2252" y2="15.9697" gradientUnits="userSpaceOnUse">
<stop stop-color="white" stop-opacity="0.5"/>
<stop offset="1" stop-color="white" stop-opacity="0"/>
</linearGradient>
<linearGradient id="paint6_linear_904_2" x1="87.2544" y1="64.5997" x2="87.2544" y2="15.9697" gradientUnits="userSpaceOnUse">
<stop stop-color="white" stop-opacity="0.5"/>
<stop offset="1" stop-color="white" stop-opacity="0"/>
</linearGradient>
<linearGradient id="paint7_linear_904_2" x1="29.6866" y1="64.6" x2="29.6866" y2="15.97" gradientUnits="userSpaceOnUse">
<stop stop-color="white" stop-opacity="0.5"/>
<stop offset="1" stop-color="white" stop-opacity="0"/>
</linearGradient>
<clipPath id="clip0_904_2">
<rect width="674.89" height="116.99" fill="white"/>
</clipPath>
</defs>
</svg>
